<svg width="1358" height="768" viewBox="0 0 1358 768" fill="none" xmlns="http://www.w3.org/2000/svg">
<g opacity="0.1" clip-path="url(#clip0_27_7355)">
<path d="M1339.88 766.736V0.490723" stroke="#727272" stroke-dasharray="6 6"/>
<path d="M1293.16 766.736V0.490723" stroke="#727272" stroke-dasharray="6 6"/>
<path d="M1246.44 766.736V0.490723" stroke="#727272" stroke-dasharray="6 6"/>
<path d="M1199.72 766.736V0.490723" stroke="#727272" stroke-dasharray="6 6"/>
<path d="M1153 766.736V0.490723" stroke="#727272" stroke-dasharray="6 6"/>
<path d="M1106.27 766.736V0.490723" stroke="#727272" stroke-dasharray="6 6"/>
<path d="M1059.55 766.736V0.490723" stroke="#727272" stroke-dasharray="6 6"/>
<path d="M1012.83 766.736V0.490723" stroke="#727272" stroke-dasharray="6 6"/>
<path d="M966.109 766.736V0.490723" stroke="#727272" stroke-dasharray="6 6"/>
<path d="M919.385 766.736V0.490723" stroke="#727272" stroke-dasharray="6 6"/>
<path d="M872.664 766.736V0.490723" stroke="#727272" stroke-dasharray="6 6"/>
<path d="M825.943 766.736V0.490723" stroke="#727272" stroke-dasharray="6 6"/>
<path d="M779.219 766.736V0.490723" stroke="#727272" stroke-dasharray="6 6"/>
<path d="M732.492 766.736V0.490723" stroke="#727272" stroke-dasharray="6 6"/>
<path d="M685.748 766.747V0.501953" stroke="#727272" stroke-dasharray="6 6"/>
<path d="M639.027 766.747V0.501953" stroke="#727272" stroke-dasharray="6 6"/>
<path d="M592.303 766.747V0.501953" stroke="#727272" stroke-dasharray="6 6"/>
<path d="M545.582 766.747V0.501953" stroke="#727272" stroke-dasharray="6 6"/>
<path d="M498.861 766.747V0.501953" stroke="#727272" stroke-dasharray="6 6"/>
<path d="M452.137 766.747V0.501953" stroke="#727272" stroke-dasharray="6 6"/>
<path d="M405.416 766.747V0.501953" stroke="#727272" stroke-dasharray="6 6"/>
<path d="M358.689 766.747L358.69 0.502441" stroke="#727272" stroke-dasharray="6 6"/>
<path d="M311.971 766.747V0.502441" stroke="#727272" stroke-dasharray="6 6"/>
<path d="M265.254 766.747V0.501953" stroke="#727272" stroke-dasharray="6 6"/>
<path d="M218.523 766.747L218.524 0.502441" stroke="#727272" stroke-dasharray="6 6"/>
<path d="M171.799 766.747V0.501953" stroke="#727272" stroke-dasharray="6 6"/>
<path d="M125.078 766.747V0.501953" stroke="#727272" stroke-dasharray="6 6"/>
<path d="M78.3574 766.747L78.3575 0.502441" stroke="#727272" stroke-dasharray="6 6"/>
<path d="M31.6426 766.747L31.6427 0.501953" stroke="#727272" stroke-dasharray="6 6"/>
<path d="M0.365234 733.542L1466.51 733.542" stroke="#727272" stroke-dasharray="6 6"/>
<path d="M0.365234 686.82H1466.51" stroke="#727272" stroke-dasharray="6 6"/>
<path d="M0.365234 640.097H1466.51" stroke="#727272" stroke-dasharray="6 6"/>
<path d="M0.365234 593.374L1466.51 593.375" stroke="#727272" stroke-dasharray="6 6"/>
<path d="M0.365234 546.651H1466.51" stroke="#727272" stroke-dasharray="6 6"/>
<path d="M0.365234 499.931H1466.51" stroke="#727272" stroke-dasharray="6 6"/>
<path d="M0.365234 453.206L1466.51 453.207" stroke="#727272" stroke-dasharray="6 6"/>
<path d="M0.365234 406.483H1466.51" stroke="#727272" stroke-dasharray="6 6"/>
<path d="M0.365234 359.763H1466.51" stroke="#727272" stroke-dasharray="6 6"/>
<path d="M0.365234 313.04L1466.51 313.041" stroke="#727272" stroke-dasharray="6 6"/>
<path d="M0.365234 266.317H1466.51" stroke="#727272" stroke-dasharray="6 6"/>
<path d="M0.365234 219.597H1466.51" stroke="#727272" stroke-dasharray="6 6"/>
<path d="M0.365234 172.874L1466.51 172.875" stroke="#727272" stroke-dasharray="6 6"/>
<path d="M0.365234 126.152H1466.51" stroke="#727272" stroke-dasharray="6 6"/>
<path d="M0.365234 79.4287L1466.51 79.4289" stroke="#727272" stroke-dasharray="6 6"/>
<path d="M0.365234 32.708L1466.51 32.7082" stroke="#727272" stroke-dasharray="6 6"/>
</g>
<defs>
<clipPath id="clip0_27_7355">
<rect width="1358" height="767" fill="white" transform="translate(0 0.390625)"/>
</clipPath>
</defs>
</svg>
